<svg width="200" height="200" viewBox="0 0 200 200" xmlns="http://www.w3.org/2000/svg">
  <!-- Circular background -->
  <circle cx="100" cy="100" r="95" fill="#f5f5f5" stroke="#ddd" stroke-width="2"/>
  
  <!-- Face -->
  <circle cx="100" cy="80" r="25" fill="#fdbcb4"/>
  
  <!-- Hair -->
  <path d="M75 65 Q100 45 125 65 Q120 50 100 50 Q80 50 75 65" fill="#8B4513"/>
  
  <!-- Eyes -->
  <circle cx="90" cy="75" r="3" fill="#333"/>
  <circle cx="110" cy="75" r="3" fill="#333"/>
  
  <!-- Beard -->
  <path d="M85 95 Q100 105 115 95 Q112 100 100 100 Q88 100 85 95" fill="#654321"/>
  
  <!-- Body (plaid shirt) -->
  <rect x="80" y="110" width="40" height="80" fill="#666" rx="5"/>
  <line x1="85" y1="110" x2="85" y2="190" stroke="#999" stroke-width="2"/>
  <line x1="95" y1="110" x2="95" y2="190" stroke="#999" stroke-width="2"/>
  <line x1="105" y1="110" x2="105" y2="190" stroke="#999" stroke-width="2"/>
  <line x1="115" y1="110" x2="115" y2="190" stroke="#999" stroke-width="2"/>
  
  <!-- Horizontal plaid lines -->
  <line x1="80" y1="120" x2="120" y2="120" stroke="#999" stroke-width="1"/>
  <line x1="80" y1="130" x2="120" y2="130" stroke="#999" stroke-width="1"/>
  <line x1="80" y1="140" x2="120" y2="140" stroke="#999" stroke-width="1"/>
  <line x1="80" y1="150" x2="120" y2="150" stroke="#999" stroke-width="1"/>
  
  <!-- Smile -->
  <path d="M92 85 Q100 90 108 85" stroke="#333" stroke-width="2" fill="none"/>
</svg>